<?xml version="1.0" encoding="utf-8"?>
<!-- Generator: Adobe Illustrator 21.1.0, SVG Export Plug-In . SVG Version: 6.00 Build 0)  -->
<svg version="1.1" id="Layer_1" xmlns="http://www.w3.org/2000/svg" xmlns:xlink="http://www.w3.org/1999/xlink" x="0px" y="0px"
	 viewBox="0 0 160 50" style="enable-background:new 0 0 160 50;" xml:space="preserve">
<style type="text/css">
	.st0{enable-background:new    ;}
	.st1{fill:none;stroke:#000000;stroke-miterlimit:10;}
	.st2{fill:#FFC526;}
	.st3{fill:#FFFFFF;}
</style>
<g class="st0">
	<path d="M20.7,27.5l-1.8,1.8c-1.1-1.2-2.4-1.8-3.9-1.8c-1.3,0-2.4,0.4-3.3,1.3c-0.9,0.9-1.3,1.9-1.3,3.2c0,1.3,0.5,2.4,1.4,3.3
		c0.9,0.9,2,1.3,3.4,1.3c0.9,0,1.6-0.2,2.2-0.6c0.6-0.4,1.1-0.9,1.5-1.7h-3.8v-2.4h6.7l0,0.6c0,1.2-0.3,2.3-0.9,3.3
		c-0.6,1-1.4,1.8-2.3,2.4c-1,0.5-2.1,0.8-3.4,0.8c-1.4,0-2.6-0.3-3.7-0.9c-1.1-0.6-1.9-1.5-2.6-2.6c-0.6-1.1-0.9-2.3-0.9-3.6
		c0-1.8,0.6-3.3,1.7-4.6C11,25.8,12.7,25,15,25c1.2,0,2.2,0.2,3.2,0.6C19,26,19.9,26.6,20.7,27.5z"/>
	<path d="M28,25.3h2.6l5.1,13.3h-2.6l-1-2.7h-5.4l-1.1,2.7h-2.6L28,25.3z M29.3,28.8l-1.8,4.6h3.6L29.3,28.8z"/>
	<path d="M38.9,25.3h2.5l3.1,9.3l3.1-9.3h2.5l2.2,13.3h-2.4l-1.4-8.4l-2.8,8.4h-2.2l-2.8-8.4l-1.5,8.4h-2.5L38.9,25.3z"/>
	<path d="M54.1,25.3h2.5v13.3h-2.5V25.3z"/>
	<path d="M59.5,25.3h2.4l5.7,8.7v-8.7h2.5v13.3h-2.4L62,29.9v8.7h-2.5V25.3z"/>
	<path d="M85.4,27.5l-1.8,1.8c-1.1-1.2-2.4-1.8-3.9-1.8c-1.3,0-2.4,0.4-3.3,1.3c-0.9,0.9-1.3,1.9-1.3,3.2c0,1.3,0.5,2.4,1.4,3.3
		c0.9,0.9,2,1.3,3.4,1.3c0.9,0,1.6-0.2,2.2-0.6s1.1-0.9,1.5-1.7h-3.8v-2.4h6.7l0,0.6c0,1.2-0.3,2.3-0.9,3.3c-0.6,1-1.4,1.8-2.3,2.4
		c-1,0.5-2.1,0.8-3.4,0.8c-1.4,0-2.6-0.3-3.7-0.9c-1.1-0.6-1.9-1.5-2.6-2.6c-0.6-1.1-0.9-2.3-0.9-3.6c0-1.8,0.6-3.3,1.7-4.6
		c1.4-1.5,3.2-2.3,5.4-2.3c1.2,0,2.2,0.2,3.2,0.6C83.8,26,84.6,26.6,85.4,27.5z"/>
</g>
<path class="st1" d="M25.5,13.5"/>
<path class="st1" d="M19.5,22.5"/>
<path class="st2" d="M44-25"/>
<circle class="st2" cx="99.5" cy="35.5" r="8.5"/>
<rect x="99" y="27" class="st2" width="47" height="17"/>
<circle class="st2" cx="145.5" cy="35.5" r="8.5"/>
<circle class="st2" cx="109.5" cy="26.5" r="8.5"/>
<circle class="st2" cx="128.5" cy="23.5" r="15.5"/>
<g class="st0">
	<path class="st3" d="M99,24.5h8l-4.7,10.9h4.4v2.4h-8.1l4.7-10.8H99V24.5z"/>
	<path class="st3" d="M115.2,24.2c1.9,0,3.5,0.7,4.8,2c1.4,1.4,2,3,2,5c0,1.9-0.7,3.6-2,4.9c-1.3,1.3-3,2-4.9,2c-2,0-3.7-0.7-5-2.1
		s-2-3-2-4.9c0-1.3,0.3-2.4,0.9-3.5c0.6-1.1,1.5-1.9,2.5-2.5C112.8,24.5,114,24.2,115.2,24.2z M115.2,26.6c-1.2,0-2.3,0.4-3.1,1.3
		c-0.8,0.9-1.3,1.9-1.3,3.3c0,1.5,0.5,2.6,1.6,3.5c0.8,0.7,1.8,1,2.8,1c1.2,0,2.2-0.4,3.1-1.3c0.8-0.9,1.3-1.9,1.3-3.2
		c0-1.3-0.4-2.3-1.3-3.2C117.5,27.1,116.4,26.6,115.2,26.6z"/>
	<path class="st3" d="M124.5,24.5h2.4l5.7,8.7v-8.7h2.5v13.3h-2.4l-5.7-8.7v8.7h-2.5V24.5z"/>
	<path class="st3" d="M138.2,24.5h7.3V27h-4.7v2.4h4.7v2.4h-4.7v3.5h4.7v2.5h-7.3V24.5z"/>
</g>
</svg>
